Coordinates
version=1
nRows=6
nColumns=34
inDegrees=yes

Units are S.I. units (second, meters, Newtons, ...)
If the header above contains a line with 'inDegrees', this indicates whether rotational values are in degrees (yes) or radians (no).

endheader
time	pelvis_tilt	pelvis_list	pelvis_rotation	pelvis_tx	pelvis_ty	pelvis_tz	hip_flexion_r	hip_adduction_r	hip_rotation_r	knee_angle_r	ankle_angle_r	subtalar_angle_r	mtp_angle_r	hip_flexion_l	hip_adduction_l	hip_rotation_l	knee_angle_l	ankle_angle_l	subtalar_angle_l	mtp_angle_l	lumbar_extension	lumbar_bending	lumbar_rotation	arm_flex_r	arm_add_r	arm_rot_r	elbow_flex_r	pro_sup_r	arm_flex_l	arm_add_l	arm_rot_l	elbow_flex_l	pro_sup_l
      5.36666670	    -49.58606025	      0.68689969	      0.59423443	      0.28734350	      0.56217066	     -0.03217552	    117.38196672	    -16.16936140	     -2.24855185	     97.59215810	     32.80885568	     -6.30712972	      0.00000000	    119.99999986	    -14.56958193	     -1.29376514	     97.26379598	     29.39997820	      5.71936447	      0.00000000	    -22.84626227	     -0.45816412	     -0.63011365	    116.90957244	     14.70741026	     69.42010797	    127.54937280	     84.57413511	    126.92116928	     12.60516474	     66.36152837	    123.11468489	     73.05752772
      5.38333330	    -48.73076486	      0.75227136	      0.90924372	      0.28562200	      0.55624116	     -0.03426787	    117.52781381	    -16.95484229	     -1.92541298	     98.99265123	     33.20938462	     -6.19625165	      0.00000000	    119.99999986	    -14.40094068	     -1.51952413	     98.42811383	     29.67144664	      6.04085683	      0.00000000	    -24.76098181	     -0.34778010	     -1.12788120	    117.20686705	     14.66792567	     70.44754904	    127.79186944	     84.52416595	    127.21788107	     12.72337103	     65.65457718	    122.41380028	     73.16419114
      5.40000000	    -48.14874313	      0.83524951	      1.05066572	      0.28598827	      0.55324231	     -0.03844991	    117.81358247	    -17.64443733	     -1.65786905	    100.07702167	     33.36152493	     -5.88238611	      0.00000000	    119.99999986	    -14.24851669	     -1.75653946	     99.29653862	     29.83084795	      6.19181316	      0.00000000	    -26.43769821	     -0.19498314	     -1.47487046	    117.51897449	     14.34448752	     71.25688047	    128.45012477	     84.46150011	    127.30960258	     12.86412469	     64.94940034	    121.62768252	     73.26825244
      5.41666670	    -47.61422888	      1.08871667	      1.01299666	      0.28563610	      0.54762715	     -0.04138031	    118.05744050	    -18.21729554	     -1.40145814	    100.98878296	     33.67480355	     -4.90081381	      0.00000000	    119.99999986	    -14.18763868	     -2.05292590	    100.19555163	     30.00961439	      6.04881430	      0.00000000	    -27.81808228	     -0.19741628	     -1.62421748	    117.95358313	     13.90166712	     71.15135770	    129.35676732	     84.36053891	    127.31605722	     12.99404724	     63.99750777	    121.08669002	     73.39972652
      5.43333330	    -47.17405357	      1.39372934	      0.76486947	      0.29086423	      0.54280557	     -0.04267922	    118.24511270	    -18.67015243	     -1.25027287	    101.95813686	     33.86999409	     -4.08164856	      0.00000000	    119.99999986	    -14.40678545	     -2.17948189	    101.27223504	     30.40608535	      5.77381259	      0.00000000	    -28.78581220	     -0.31925928	     -1.75022783	    117.75716129	     13.87393197	     71.35073577	    129.90764358	     84.32531738	    127.14970441	     13.20770878	     63.58225419	    121.21965116	     73.51416062
      5.45000000	    -47.02751578	      1.70000655	      0.82757169	      0.29285735	      0.54115781	     -0.04445714	    118.39703831	    -19.32397267	     -0.96663691	    102.54153140	     34.54881440	     -2.93655715	      0.00000000	    119.99999986	    -14.38247940	     -2.52300380	    101.97960123	     30.56313003	      5.89392569	      0.00000000	    -29.40549884	     -0.25182429	     -1.35749328	    117.74534362	     13.10107372	     70.36683165	    130.63447858	     84.22204717	    126.83603786	     13.68946851	     62.99702208	    121.61572447	     73.79742360
